<mxfile host="app.diagrams.net" modified="2024-01-16T10:10:12.920Z" agent="Mozilla/5.0 (Windows NT 10.0; Win64; x64) AppleWebKit/537.36 (KHTML, like Gecko) Chrome/120.0.0.0 Safari/537.36" version="22.1.18" etag="Nc-sLbD49WilaqUaM8hw" type="github">
  <diagram name="Page-1" id="gBQKpmrNTSBQmwzf4ECf">
    <mxGraphModel>
      <root>
        <mxCell id="0" />
        <mxCell id="1" parent="0" />
      </root>
    </mxGraphModel>
  </diagram>
</mxfile>
